<svg xmlns="http://www.w3.org/2000/svg" width="208" height="512" viewBox="0 0 208 512"><defs><marker id="arrow" markerWidth="12" markerHeight="6" refX="11" refY="3" orient="auto" markerUnits="userSpaceOnUse"><path d="M 0 0 L 12 3 L 0 6 z" fill="#000000" /></marker></defs><line x1="104.5" y1="120" x2="104.0" y2="200" stroke="#000000" stroke-width="2" marker-end="url(#arrow)" /><line x1="104.0" y1="312" x2="104.5" y2="392" stroke="#000000" stroke-width="2" marker-end="url(#arrow)" /><rect x="54" y="40" width="101" height="80" rx="10" ry="10" fill="#ffffff" stroke="#000000" stroke-width="2"><circle cx="135.0" cy="60.0" r="7.0" stroke="#000000" fill="none" stroke-width="1.5" /><text x="66" y="63" font-family="Arial" font-size="16" font-weight="bold" fill="#000000" dominant-baseline="middle">Input</text><text x="66" y="83" font-family="Arial" font-size="13" font-weight="normal" fill="#000000" dominant-baseline="middle">Input Layer</text><text x="66" y="100" font-family="Arial" font-size="12" font-weight="normal" fill="#000000" dominant-baseline="middle">Params: 0</text></rect><rect x="40" y="200" width="128" height="112" rx="10" ry="10" fill="#ffffff" stroke="#000000" stroke-width="2"><rect x="140" y="212" width="16" height="16" stroke="#000000" stroke-width="1.5" fill="none" rx="2" ry="2" /><text x="52" y="223" font-family="Arial" font-size="16" font-weight="bold" fill="#000000" dominant-baseline="middle">Dense</text><text x="52" y="243" font-family="Arial" font-size="13" font-weight="normal" fill="#000000" dominant-baseline="middle">Dense Layer</text><text x="52" y="260" font-family="Arial" font-size="12" font-weight="normal" fill="#000000" dominant-baseline="middle">Shape: (None, 4)</text><text x="52" y="276" font-family="Arial" font-size="12" font-weight="normal" fill="#000000" dominant-baseline="middle">Params: 12</text><text x="52" y="292" font-family="Arial" font-size="12" font-weight="normal" fill="#000000" dominant-baseline="middle">Units: 4</text></rect><rect x="50" y="392" width="109" height="80" rx="10" ry="10" fill="#ffffff" stroke="#000000" stroke-width="2"><circle cx="139.0" cy="412.0" r="7.0" stroke="#000000" fill="#000000" stroke-width="1.5" /><text x="62" y="415" font-family="Arial" font-size="16" font-weight="bold" fill="#000000" dominant-baseline="middle">Prediction</text><text x="62" y="435" font-family="Arial" font-size="13" font-weight="normal" fill="#000000" dominant-baseline="middle">Output Layer</text><text x="62" y="452" font-family="Arial" font-size="12" font-weight="normal" fill="#000000" dominant-baseline="middle">Params: 0</text></rect></svg>